<?xml version="1.0" encoding="UTF-8"?>
<svg xmlns="http://www.w3.org/2000/svg" xmlns:xlink="http://www.w3.org/1999/xlink" version="1.1" viewBox="0 0 3826.8 1672.4">
  <defs>
    <style>
      .cls-1 {
        filter: url(#drop-shadow-16);
      }

      .cls-1, .cls-2, .cls-3, .cls-4, .cls-5, .cls-6, .cls-7, .cls-8, .cls-9, .cls-10, .cls-11, .cls-12, .cls-13, .cls-14, .cls-15, .cls-16, .cls-17, .cls-18, .cls-19, .cls-20, .cls-21, .cls-22, .cls-23, .cls-24, .cls-25, .cls-26, .cls-27, .cls-28, .cls-29, .cls-30, .cls-31, .cls-32, .cls-33, .cls-34, .cls-35, .cls-36, .cls-37, .cls-38, .cls-39, .cls-40, .cls-41, .cls-42, .cls-43, .cls-44, .cls-45, .cls-46, .cls-47, .cls-48, .cls-49 {
        stroke-width: 0px;
      }

      .cls-1, .cls-2, .cls-3, .cls-4, .cls-5, .cls-6, .cls-7, .cls-8, .cls-9, .cls-38, .cls-39, .cls-40, .cls-41, .cls-42, .cls-43, .cls-44, .cls-45, .cls-46 {
        fill: #2b3277;
      }

      .cls-2 {
        filter: url(#drop-shadow-13);
      }

      .cls-3 {
        filter: url(#drop-shadow-15);
      }

      .cls-4 {
        filter: url(#drop-shadow-12);
      }

      .cls-5 {
        filter: url(#drop-shadow-11);
      }

      .cls-6 {
        filter: url(#drop-shadow-10);
      }

      .cls-7 {
        filter: url(#drop-shadow-18);
      }

      .cls-8 {
        filter: url(#drop-shadow-14);
      }

      .cls-9 {
        filter: url(#drop-shadow-17);
      }

      .cls-10 {
        fill: #db4c9b;
      }

      .cls-50, .cls-51 {
        font-size: 466.6px;
      }

      .cls-51, .cls-52 {
        fill: #a3343c;
        font-family: NotoSerif-ExtraCondensedLightItalic, 'Noto Serif';
        font-style: italic;
        font-weight: 300;
      }

      .cls-11 {
        fill: #ed758a;
      }

      .cls-12 {
        fill: #818180;
      }

      .cls-13 {
        filter: url(#drop-shadow-31);
      }

      .cls-13, .cls-14, .cls-15, .cls-16, .cls-17, .cls-18, .cls-19, .cls-20, .cls-21, .cls-22, .cls-23, .cls-24, .cls-25, .cls-26, .cls-27, .cls-28, .cls-29, .cls-30 {
        fill: #a12127;
      }

      .cls-14 {
        filter: url(#drop-shadow-32);
      }

      .cls-15 {
        filter: url(#drop-shadow-30);
      }

      .cls-16 {
        filter: url(#drop-shadow-27);
      }

      .cls-17 {
        filter: url(#drop-shadow-28);
      }

      .cls-18 {
        filter: url(#drop-shadow-24);
      }

      .cls-19 {
        filter: url(#drop-shadow-26);
      }

      .cls-20 {
        filter: url(#drop-shadow-23);
      }

      .cls-21 {
        filter: url(#drop-shadow-29);
      }

      .cls-22 {
        filter: url(#drop-shadow-25);
      }

      .cls-23 {
        filter: url(#drop-shadow-21);
      }

      .cls-24 {
        filter: url(#drop-shadow-20);
      }

      .cls-25 {
        filter: url(#drop-shadow-22);
      }

      .cls-26 {
        filter: url(#drop-shadow-19);
      }

      .cls-27 {
        filter: url(#drop-shadow-34);
      }

      .cls-28 {
        filter: url(#drop-shadow-33);
      }

      .cls-29 {
        filter: url(#drop-shadow-36);
      }

      .cls-30 {
        filter: url(#drop-shadow-35);
      }

      .cls-31 {
        fill: #c5ac87;
      }

      .cls-32 {
        fill: #997f63;
      }

      .cls-53 {
        font-family: MyriadPro-Bold, 'Myriad Pro';
        font-size: 104.8px;
        font-weight: 700;
      }

      .cls-53, .cls-48 {
        fill: #8675b1;
      }

      .cls-33 {
        fill: #a3c869;
      }

      .cls-34 {
        fill: #ed5ba1;
      }

      .cls-54 {
        fill: #231f20;
        stroke: #231f20;
      }

      .cls-54, .cls-55 {
        stroke-miterlimit: 10;
      }

      .cls-54, .cls-56 {
        display: none;
      }

      .cls-57 {
        font-size: 1014.7px;
      }

      .cls-35 {
        fill: #ecf2fa;
      }

      .cls-36 {
        fill: #b4b4b5;
      }

      .cls-37 {
        fill: #8675b0;
      }

      .cls-38 {
        filter: url(#drop-shadow-6);
      }

      .cls-39 {
        filter: url(#drop-shadow-1);
      }

      .cls-40 {
        filter: url(#drop-shadow-3);
      }

      .cls-41 {
        filter: url(#drop-shadow-7);
      }

      .cls-42 {
        filter: url(#drop-shadow-4);
      }

      .cls-43 {
        filter: url(#drop-shadow-5);
      }

      .cls-44 {
        filter: url(#drop-shadow-9);
      }

      .cls-45 {
        filter: url(#drop-shadow-2);
      }

      .cls-46 {
        filter: url(#drop-shadow-8);
      }

      .cls-55 {
        fill: none;
        stroke: #8675b1;
        stroke-dasharray: 0 0 49.3 49.3;
        stroke-width: 13px;
      }

      .cls-47 {
        fill: #a22128;
      }

      .cls-49 {
        fill: #e95325;
      }
    </style>
    <filter id="drop-shadow-1" filterUnits="userSpaceOnUse">
      <feOffset dx="2.8" dy="7"/>
      <feGaussianBlur result="blur" stdDeviation="5"/>
      <feFlood flood-color="#231f20" flood-opacity=".7"/>
      <feComposite in2="blur" operator="in"/>
      <feComposite in="SourceGraphic"/>
    </filter>
    <filter id="drop-shadow-2" filterUnits="userSpaceOnUse">
      <feOffset dx="2.8" dy="7"/>
      <feGaussianBlur result="blur-2" stdDeviation="5"/>
      <feFlood flood-color="#231f20" flood-opacity=".7"/>
      <feComposite in2="blur-2" operator="in"/>
      <feComposite in="SourceGraphic"/>
    </filter>
    <filter id="drop-shadow-3" filterUnits="userSpaceOnUse">
      <feOffset dx="2.8" dy="7"/>
      <feGaussianBlur result="blur-3" stdDeviation="5"/>
      <feFlood flood-color="#231f20" flood-opacity=".7"/>
      <feComposite in2="blur-3" operator="in"/>
      <feComposite in="SourceGraphic"/>
    </filter>
    <filter id="drop-shadow-4" filterUnits="userSpaceOnUse">
      <feOffset dx="2.8" dy="7"/>
      <feGaussianBlur result="blur-4" stdDeviation="5"/>
      <feFlood flood-color="#231f20" flood-opacity=".7"/>
      <feComposite in2="blur-4" operator="in"/>
      <feComposite in="SourceGraphic"/>
    </filter>
    <filter id="drop-shadow-5" filterUnits="userSpaceOnUse">
      <feOffset dx="2.8" dy="7"/>
      <feGaussianBlur result="blur-5" stdDeviation="5"/>
      <feFlood flood-color="#231f20" flood-opacity=".7"/>
      <feComposite in2="blur-5" operator="in"/>
      <feComposite in="SourceGraphic"/>
    </filter>
    <filter id="drop-shadow-6" filterUnits="userSpaceOnUse">
      <feOffset dx="2.8" dy="7"/>
      <feGaussianBlur result="blur-6" stdDeviation="5"/>
      <feFlood flood-color="#231f20" flood-opacity=".7"/>
      <feComposite in2="blur-6" operator="in"/>
      <feComposite in="SourceGraphic"/>
    </filter>
    <filter id="drop-shadow-7" filterUnits="userSpaceOnUse">
      <feOffset dx="2.8" dy="7"/>
      <feGaussianBlur result="blur-7" stdDeviation="5"/>
      <feFlood flood-color="#231f20" flood-opacity=".7"/>
      <feComposite in2="blur-7" operator="in"/>
      <feComposite in="SourceGraphic"/>
    </filter>
    <filter id="drop-shadow-8" filterUnits="userSpaceOnUse">
      <feOffset dx="2.8" dy="7"/>
      <feGaussianBlur result="blur-8" stdDeviation="5"/>
      <feFlood flood-color="#231f20" flood-opacity=".7"/>
      <feComposite in2="blur-8" operator="in"/>
      <feComposite in="SourceGraphic"/>
    </filter>
    <filter id="drop-shadow-9" filterUnits="userSpaceOnUse">
      <feOffset dx="2.8" dy="7"/>
      <feGaussianBlur result="blur-9" stdDeviation="5"/>
      <feFlood flood-color="#231f20" flood-opacity=".7"/>
      <feComposite in2="blur-9" operator="in"/>
      <feComposite in="SourceGraphic"/>
    </filter>
    <filter id="drop-shadow-10" filterUnits="userSpaceOnUse">
      <feOffset dx="2.8" dy="7"/>
      <feGaussianBlur result="blur-10" stdDeviation="5"/>
      <feFlood flood-color="#231f20" flood-opacity=".7"/>
      <feComposite in2="blur-10" operator="in"/>
      <feComposite in="SourceGraphic"/>
    </filter>
    <filter id="drop-shadow-11" filterUnits="userSpaceOnUse">
      <feOffset dx="2.8" dy="7"/>
      <feGaussianBlur result="blur-11" stdDeviation="5"/>
      <feFlood flood-color="#231f20" flood-opacity=".7"/>
      <feComposite in2="blur-11" operator="in"/>
      <feComposite in="SourceGraphic"/>
    </filter>
    <filter id="drop-shadow-12" filterUnits="userSpaceOnUse">
      <feOffset dx="2.8" dy="7"/>
      <feGaussianBlur result="blur-12" stdDeviation="5"/>
      <feFlood flood-color="#231f20" flood-opacity=".7"/>
      <feComposite in2="blur-12" operator="in"/>
      <feComposite in="SourceGraphic"/>
    </filter>
    <filter id="drop-shadow-13" filterUnits="userSpaceOnUse">
      <feOffset dx="2.8" dy="7"/>
      <feGaussianBlur result="blur-13" stdDeviation="5"/>
      <feFlood flood-color="#231f20" flood-opacity=".7"/>
      <feComposite in2="blur-13" operator="in"/>
      <feComposite in="SourceGraphic"/>
    </filter>
    <filter id="drop-shadow-14" filterUnits="userSpaceOnUse">
      <feOffset dx="2.8" dy="7"/>
      <feGaussianBlur result="blur-14" stdDeviation="5"/>
      <feFlood flood-color="#231f20" flood-opacity=".7"/>
      <feComposite in2="blur-14" operator="in"/>
      <feComposite in="SourceGraphic"/>
    </filter>
    <filter id="drop-shadow-15" filterUnits="userSpaceOnUse">
      <feOffset dx="2.8" dy="7"/>
      <feGaussianBlur result="blur-15" stdDeviation="5"/>
      <feFlood flood-color="#231f20" flood-opacity=".7"/>
      <feComposite in2="blur-15" operator="in"/>
      <feComposite in="SourceGraphic"/>
    </filter>
    <filter id="drop-shadow-16" filterUnits="userSpaceOnUse">
      <feOffset dx="2.8" dy="7"/>
      <feGaussianBlur result="blur-16" stdDeviation="5"/>
      <feFlood flood-color="#231f20" flood-opacity=".7"/>
      <feComposite in2="blur-16" operator="in"/>
      <feComposite in="SourceGraphic"/>
    </filter>
    <filter id="drop-shadow-17" filterUnits="userSpaceOnUse">
      <feOffset dx="2.8" dy="7"/>
      <feGaussianBlur result="blur-17" stdDeviation="5"/>
      <feFlood flood-color="#231f20" flood-opacity=".7"/>
      <feComposite in2="blur-17" operator="in"/>
      <feComposite in="SourceGraphic"/>
    </filter>
    <filter id="drop-shadow-18" filterUnits="userSpaceOnUse">
      <feOffset dx="2.8" dy="7"/>
      <feGaussianBlur result="blur-18" stdDeviation="5"/>
      <feFlood flood-color="#231f20" flood-opacity=".7"/>
      <feComposite in2="blur-18" operator="in"/>
      <feComposite in="SourceGraphic"/>
    </filter>
    <filter id="drop-shadow-19" filterUnits="userSpaceOnUse">
      <feOffset dx="2.8" dy="7"/>
      <feGaussianBlur result="blur-19" stdDeviation="5"/>
      <feFlood flood-color="#231f20" flood-opacity=".7"/>
      <feComposite in2="blur-19" operator="in"/>
      <feComposite in="SourceGraphic"/>
    </filter>
    <filter id="drop-shadow-20" filterUnits="userSpaceOnUse">
      <feOffset dx="2.8" dy="7"/>
      <feGaussianBlur result="blur-20" stdDeviation="5"/>
      <feFlood flood-color="#231f20" flood-opacity=".7"/>
      <feComposite in2="blur-20" operator="in"/>
      <feComposite in="SourceGraphic"/>
    </filter>
    <filter id="drop-shadow-21" filterUnits="userSpaceOnUse">
      <feOffset dx="2.8" dy="7"/>
      <feGaussianBlur result="blur-21" stdDeviation="5"/>
      <feFlood flood-color="#231f20" flood-opacity=".7"/>
      <feComposite in2="blur-21" operator="in"/>
      <feComposite in="SourceGraphic"/>
    </filter>
    <filter id="drop-shadow-22" filterUnits="userSpaceOnUse">
      <feOffset dx="2.8" dy="7"/>
      <feGaussianBlur result="blur-22" stdDeviation="5"/>
      <feFlood flood-color="#231f20" flood-opacity=".7"/>
      <feComposite in2="blur-22" operator="in"/>
      <feComposite in="SourceGraphic"/>
    </filter>
    <filter id="drop-shadow-23" filterUnits="userSpaceOnUse">
      <feOffset dx="2.8" dy="7"/>
      <feGaussianBlur result="blur-23" stdDeviation="5"/>
      <feFlood flood-color="#231f20" flood-opacity=".7"/>
      <feComposite in2="blur-23" operator="in"/>
      <feComposite in="SourceGraphic"/>
    </filter>
    <filter id="drop-shadow-24" filterUnits="userSpaceOnUse">
      <feOffset dx="2.8" dy="7"/>
      <feGaussianBlur result="blur-24" stdDeviation="5"/>
      <feFlood flood-color="#231f20" flood-opacity=".7"/>
      <feComposite in2="blur-24" operator="in"/>
      <feComposite in="SourceGraphic"/>
    </filter>
    <filter id="drop-shadow-25" filterUnits="userSpaceOnUse">
      <feOffset dx="2.8" dy="7"/>
      <feGaussianBlur result="blur-25" stdDeviation="5"/>
      <feFlood flood-color="#231f20" flood-opacity=".7"/>
      <feComposite in2="blur-25" operator="in"/>
      <feComposite in="SourceGraphic"/>
    </filter>
    <filter id="drop-shadow-26" filterUnits="userSpaceOnUse">
      <feOffset dx="2.8" dy="7"/>
      <feGaussianBlur result="blur-26" stdDeviation="5"/>
      <feFlood flood-color="#231f20" flood-opacity=".7"/>
      <feComposite in2="blur-26" operator="in"/>
      <feComposite in="SourceGraphic"/>
    </filter>
    <filter id="drop-shadow-27" filterUnits="userSpaceOnUse">
      <feOffset dx="2.8" dy="7"/>
      <feGaussianBlur result="blur-27" stdDeviation="5"/>
      <feFlood flood-color="#231f20" flood-opacity=".7"/>
      <feComposite in2="blur-27" operator="in"/>
      <feComposite in="SourceGraphic"/>
    </filter>
    <filter id="drop-shadow-28" filterUnits="userSpaceOnUse">
      <feOffset dx="2.8" dy="7"/>
      <feGaussianBlur result="blur-28" stdDeviation="5"/>
      <feFlood flood-color="#231f20" flood-opacity=".7"/>
      <feComposite in2="blur-28" operator="in"/>
      <feComposite in="SourceGraphic"/>
    </filter>
    <filter id="drop-shadow-29" filterUnits="userSpaceOnUse">
      <feOffset dx="2.8" dy="7"/>
      <feGaussianBlur result="blur-29" stdDeviation="5"/>
      <feFlood flood-color="#231f20" flood-opacity=".7"/>
      <feComposite in2="blur-29" operator="in"/>
      <feComposite in="SourceGraphic"/>
    </filter>
    <filter id="drop-shadow-30" filterUnits="userSpaceOnUse">
      <feOffset dx="2.8" dy="7"/>
      <feGaussianBlur result="blur-30" stdDeviation="5"/>
      <feFlood flood-color="#231f20" flood-opacity=".7"/>
      <feComposite in2="blur-30" operator="in"/>
      <feComposite in="SourceGraphic"/>
    </filter>
    <filter id="drop-shadow-31" filterUnits="userSpaceOnUse">
      <feOffset dx="2.8" dy="7"/>
      <feGaussianBlur result="blur-31" stdDeviation="5"/>
      <feFlood flood-color="#231f20" flood-opacity=".7"/>
      <feComposite in2="blur-31" operator="in"/>
      <feComposite in="SourceGraphic"/>
    </filter>
    <filter id="drop-shadow-32" filterUnits="userSpaceOnUse">
      <feOffset dx="2.8" dy="7"/>
      <feGaussianBlur result="blur-32" stdDeviation="5"/>
      <feFlood flood-color="#231f20" flood-opacity=".7"/>
      <feComposite in2="blur-32" operator="in"/>
      <feComposite in="SourceGraphic"/>
    </filter>
    <filter id="drop-shadow-33" filterUnits="userSpaceOnUse">
      <feOffset dx="2.8" dy="7"/>
      <feGaussianBlur result="blur-33" stdDeviation="5"/>
      <feFlood flood-color="#231f20" flood-opacity=".7"/>
      <feComposite in2="blur-33" operator="in"/>
      <feComposite in="SourceGraphic"/>
    </filter>
    <filter id="drop-shadow-34" filterUnits="userSpaceOnUse">
      <feOffset dx="2.8" dy="7"/>
      <feGaussianBlur result="blur-34" stdDeviation="5"/>
      <feFlood flood-color="#231f20" flood-opacity=".7"/>
      <feComposite in2="blur-34" operator="in"/>
      <feComposite in="SourceGraphic"/>
    </filter>
    <filter id="drop-shadow-35" filterUnits="userSpaceOnUse">
      <feOffset dx="2.8" dy="7"/>
      <feGaussianBlur result="blur-35" stdDeviation="5"/>
      <feFlood flood-color="#231f20" flood-opacity=".7"/>
      <feComposite in2="blur-35" operator="in"/>
      <feComposite in="SourceGraphic"/>
    </filter>
    <filter id="drop-shadow-36" filterUnits="userSpaceOnUse">
      <feOffset dx="2.8" dy="7"/>
      <feGaussianBlur result="blur-36" stdDeviation="5"/>
      <feFlood flood-color="#231f20" flood-opacity=".7"/>
      <feComposite in2="blur-36" operator="in"/>
      <feComposite in="SourceGraphic"/>
    </filter>
  </defs>
  <g id="Layer_1" data-name="Layer 1">
    <path class="cls-54" d="M3191.5,472.5s-6.2,5.7-2.3,6.1c54.2,6.6,48.2,24.1,48.2,24.1l2.8,70-215.4-.9v8.5c-.1,0,32.5,3.3,32.5,3.3,0,0,17.1,4.1,17.4,31s.3,119.8.3,119.8c0,0,4.1,21.5,26.4,23.1,22.3,1.6,31.2-22.8,31.2-22.8v-132.6s-1.1-4.3,11.7-6.5,37.5,1.4,37.5,1.4c0,0,42.7,13.3,53.5,57.3,10.9,44-11.7,86.7-11.7,86.7,0,0-15.5,19.6-33.1,37.8-9.5,9.8,2.4,25.5,2.4,25.5l46.5,66.8,39.9,51.6s21.2,21.2,42.7,27.2c21.5,6,88,1.9,88,1.9,0,0,3.8.3,5.7-3.3s-8.7-7.6-8.7-7.6c0,0-20.4,2.4-37-9.5-16.6-12-37.5-29.6-70.6-72-33.1-42.4-67.1-84.5-67.1-84.5,0,0,10.1-8.4,29.1-27.2,19-18.7,32.1-53,32.1-53,0,0,6.5-33.7,3.5-72.3-3-38.6,1.1-100.4,0-120.6,0-8,38.3-5.3,38.3-5.3,0,0,20.4.5,39.4,17.4,19,16.8,25.8,33.4,28.3,65.2,2.4,31.8-9.5,64.7-48.1,99.1-7.6,8.1,0,20.4,0,20.4l59.5,86.6s13.6,22.5,32.7,42c19.1,19.5,48.8,22.9,48.8,22.9l77.3,1.3s4-1.6,5.1-3.7c1.1-2-2.2-5.4-2.2-5.4,0,0-40.8,3.8-81.7-45.3-40.8-49.2-98.3-123.6-98.3-123.6,0,0,23.5-11.4,50.5-54.7,27-43.3,9.7-86.2,9.7-86.2,0,0-9.3-39.1-51.2-50.9s-99.7-8.7-99.7-8.7l-113.8-.6Z"/>
    <text class="cls-52" transform="translate(2111.5 951.2)"><tspan class="cls-50" x="0" y="0">3</tspan><tspan class="cls-57" x="207.2" y="0">c</tspan></text>
    <g class="cls-56">
      <path class="cls-10" d="M394.8,973.9c0,9,.9,15.6,2.8,19.6,1.9,4,5.3,6.8,10.3,8.2,5,1.4,13.1,2.1,24.3,2.1h50.9c17.7,0,31.9-5.4,42.5-16.3,10.6-10.9,17.6-26,21-45.3,0-.9.9-1.3,2.6-1.2,1.7.2,2.6.7,2.6,1.6-2.8,25.8-4.2,47.1-4.2,63.9s-.5,4.3-1.4,5.4c-.9,1.1-2.8,1.6-5.6,1.6h-215.6c-.6,0-.9-.9-.9-2.8s.3-2.8.9-2.8c11.8,0,20.5-.8,25.9-2.3,5.4-1.6,9.1-4.6,11-9.1,1.9-4.5,2.8-11.4,2.8-20.8v-216c0-9.3-.9-16.2-2.8-20.5-1.9-4.4-5.5-7.4-11-9.1-5.4-1.7-14.1-2.6-25.9-2.6s-.9-.9-.9-2.8.3-2.8.9-2.8l22.9.5c13.1.6,23.6.9,31.7.9s19.6-.3,32.7-.9l22.4-.5c.9,0,1.4.9,1.4,2.8s-.5,2.8-1.4,2.8c-11.5,0-20,.9-25.4,2.6-5.4,1.7-9.2,4.8-11.2,9.3-2,4.5-3,11.4-3,20.8v213.7Z"/>
      <path class="cls-10" d="M724.7,987.4c.9,0,1.8.5,2.6,1.6.8,1.1.9,2.1.2,3-20.5,18-43.2,27.1-68.1,27.1s-33.4-4.2-46.2-12.6c-12.8-8.4-22.5-19.4-29.2-33.1-6.7-13.7-10-28.3-10-43.9s4.4-35.2,13.1-50.6c8.7-15.4,20.6-27.5,35.7-36.4,15.1-8.9,31.6-13.3,49.7-13.3s30.8,4.7,40.1,14c9.3,9.3,14,22.4,14,39.2s-.4,7.5-1.2,9.3c-.8,1.9-2.1,2.8-4,2.8l-115.7.5c-.6,6.8-.9,12.4-.9,16.8,0,27.1,6.4,49,19.1,65.8,12.8,16.8,30.6,25.2,53.7,25.2s17.3-1.2,24-3.7c6.7-2.5,14.2-6.4,22.6-11.7h.5ZM623.9,851.9c-8.7,8.9-14.5,21.2-17.3,37.1l88.7-1.9c0-15.9-3.4-27.9-10.3-36.2-6.8-8.2-16.2-12.4-28-12.4s-24.4,4.4-33.1,13.3Z"/>
      <path class="cls-10" d="M805.4,887.8c7.2,6.4,17.6,13.1,31.3,20.3,10.9,5.6,19.4,10.4,25.4,14.5,6.1,4,11.3,9.3,15.6,15.9,4.4,6.5,6.5,14.5,6.5,23.8,0,15.9-5.9,29.2-17.7,40.1-11.8,10.9-27.8,16.3-48.1,16.3s-31.4-4.7-44.8-14c-1.9-1.2-2.8-3.1-2.8-5.6l-.9-36.4c0-.9.9-1.5,2.6-1.6,1.7-.2,2.7.2,3,1.2,5.9,15.6,13.6,27.4,23.1,35.5,9.5,8.1,20.5,12.1,32.9,12.1s18-2.5,23.3-7.5c5.3-5,7.6-12.3,7-21.9-.3-11.8-4-20.9-11-27.3-7-6.4-17.5-13-31.5-19.8-10.3-5-18.4-9.5-24.5-13.5-6.1-4-11.2-9.3-15.4-15.9-4.2-6.5-6.3-14.6-6.3-24.3,0-16.8,6.3-29.6,18.9-38.5s27.5-13.3,44.6-13.3,23.8,2.3,34.1,7c1.9.6,3,1.3,3.5,2.1.5.8.7,1.8.7,3,0,6.2-.2,11-.5,14.5l-.5,19.6c0,.6-.9.9-2.8.9s-2.8-.3-2.8-.9c0-6.5-2.5-12.7-7.5-18.4-5-5.8-11.2-10.3-18.7-13.8-7.5-3.4-14.9-5.1-22.4-5.1s-13.9,2.1-18.4,6.3c-4.5,4.2-6.8,10.5-6.8,18.9s3.6,19.5,10.7,25.9Z"/>
      <path class="cls-10" d="M1159.6,989.3c1.2,0,2.2.7,2.8,2.1.6,1.4.5,2.4-.5,3-11.5,9-21.9,15.4-31,19.1-9.2,3.7-18.7,5.6-28.7,5.6s-23.8-3-32.2-8.9c-8.4-5.9-12.6-15.7-12.6-29.4v-109.7c0-8.1-.5-13.8-1.6-17.3-1.1-3.4-3.2-5.7-6.3-6.8-3.1-1.1-8.4-1.6-15.9-1.6s-1.9-1-1.9-3,.6-3,1.9-3c12.4-.3,22.6-3.7,30.3-10,7.8-6.4,12.3-14.9,13.5-25.4,0-.9,1.2-1.4,3.7-1.4s3.3.5,3.3,1.4v34.5c15.6-.3,37.2-1.9,64.9-4.7.6,0,1.3,1.2,2.1,3.5.8,2.3,1.2,4.9,1.2,7.7s-.5,5.1-1.6,7.7c-1.1,2.6-2.3,3.8-3.5,3.5-17.1-4.4-38.1-6.8-63-7.5v116.2c0,12.8,3.2,22.2,9.6,28.5,6.4,6.2,15.5,9.3,27.3,9.3s26.1-4.4,37.3-13.1l.9-.5Z"/>
      <path class="cls-10" d="M1232.1,1006.3c-13.8-8.9-24.5-20.8-32-35.9-7.5-15.1-11.2-31.5-11.2-49.2s4.9-37.4,14.7-51.6c9.8-14.2,22.4-24.7,37.8-31.7,15.4-7,31-10.5,46.9-10.5s34.4,4.5,48.1,13.5c13.7,9,24.2,20.9,31.5,35.7,7.3,14.8,11,30.4,11,46.9s-4.5,36.2-13.5,50.6c-9,14.5-21.1,25.7-36.2,33.6-15.1,7.9-31.5,11.9-49.2,11.9s-34-4.4-47.8-13.3ZM1333.2,992.5c9.3-12.1,14-30.8,14-56s-3.2-36.5-9.6-51.8c-6.4-15.2-15.2-27.1-26.4-35.7-11.2-8.6-24-12.8-38.3-12.8s-29.8,6.1-39,18.2c-9.2,12.1-13.8,29.6-13.8,52.3s3.1,36.4,9.3,52.3c6.2,15.9,14.9,28.5,26.1,37.8,11.2,9.3,23.8,14,37.8,14s30.3-6.1,39.7-18.2Z"/>
      <path class="cls-10" d="M1419.5,1010.7c0-1.9.3-2.8.9-2.8,8.4,0,14.7-.9,18.9-2.6,4.2-1.7,7.1-4.8,8.6-9.3,1.6-4.5,2.3-11.3,2.3-20.3v-87.3c0-11.2-1.2-19.3-3.5-24.3-2.3-5-6.3-7.5-11.9-7.5s-12.6,2.2-21,6.5h-.5c-1.2,0-2.2-.8-2.8-2.3-.6-1.6-.5-2.6.5-3.3l60.7-28,1.9-.5c.6,0,1.4.4,2.3,1.2.9.8,1.4,1.6,1.4,2.6,0,2.2-.2,8.4-.5,18.7-.3,10.3-.5,22.4-.5,36.4v87.7c0,9.3.8,16.2,2.3,20.5,1.6,4.4,4.4,7.4,8.4,9.1,4,1.7,10.3,2.6,18.7,2.6s1.4.9,1.4,2.8-.5,2.8-1.4,2.8c-7.2,0-12.9-.2-17.3-.5l-25.2-.5-25.2.5c-4.4.3-10.3.5-17.7.5s-.9-.9-.9-2.8ZM1444.5,769.5c-3.6-3.4-5.4-8.2-5.4-14.5s1.8-11,5.4-14.5c3.6-3.4,8.6-5.1,15.2-5.1s11,1.7,14.5,5.1c3.4,3.4,5.1,8.2,5.1,14.5s-1.7,11-5.1,14.5c-3.4,3.4-8.2,5.1-14.5,5.1s-11.6-1.7-15.2-5.1Z"/>
      <path class="cls-10" d="M1540.3,1010.7c0-1.9.5-2.8,1.4-2.8,8.4,0,14.6-.9,18.7-2.6,4-1.7,6.8-4.8,8.4-9.3,1.6-4.5,2.3-11.3,2.3-20.3v-241.2c0-11.2-1.1-19.3-3.3-24.3-2.2-5-6.1-7.5-11.7-7.5s-11.8,2.2-21.5,6.5h-.9c-.9,0-1.6-.8-2.1-2.3-.5-1.6-.2-2.5.7-2.8l59.7-28.5c.6-.3,1.4-.5,2.3-.5s1.5.4,2.6,1.2c1.1.8,1.6,1.6,1.6,2.6v296.8c0,9,.7,15.7,2.1,20.1,1.4,4.4,4.1,7.5,8.2,9.3,4,1.9,10.3,2.8,18.7,2.8s1.4.9,1.4,2.8-.5,2.8-1.4,2.8c-6.8,0-12.4-.2-16.8-.5l-26.1-.5-25.2.5c-4.4.3-10.3.5-17.7.5s-1.4-.9-1.4-2.8Z"/>
      <path class="cls-10" d="M1811,987.4c.9,0,1.8.5,2.6,1.6.8,1.1.9,2.1.2,3-20.5,18-43.2,27.1-68.1,27.1s-33.4-4.2-46.2-12.6c-12.8-8.4-22.5-19.4-29.2-33.1-6.7-13.7-10-28.3-10-43.9s4.4-35.2,13.1-50.6c8.7-15.4,20.6-27.5,35.7-36.4,15.1-8.9,31.6-13.3,49.7-13.3s30.8,4.7,40.1,14,14,22.4,14,39.2-.4,7.5-1.2,9.3c-.8,1.9-2.1,2.8-4,2.8l-115.7.5c-.6,6.8-.9,12.4-.9,16.8,0,27.1,6.4,49,19.1,65.8,12.8,16.8,30.6,25.2,53.7,25.2s17.3-1.2,24-3.7c6.7-2.5,14.2-6.4,22.6-11.7h.5ZM1710.2,851.9c-8.7,8.9-14.5,21.2-17.3,37.1l88.7-1.9c0-15.9-3.4-27.9-10.3-36.2-6.8-8.2-16.2-12.4-28-12.4s-24.4,4.4-33.1,13.3Z"/>
      <path class="cls-10" d="M1891.7,887.8c7.2,6.4,17.6,13.1,31.3,20.3,10.9,5.6,19.4,10.4,25.4,14.5,6.1,4,11.3,9.3,15.6,15.9,4.4,6.5,6.5,14.5,6.5,23.8,0,15.9-5.9,29.2-17.7,40.1-11.8,10.9-27.8,16.3-48.1,16.3s-31.4-4.7-44.8-14c-1.9-1.2-2.8-3.1-2.8-5.6l-.9-36.4c0-.9.9-1.5,2.6-1.6,1.7-.2,2.7.2,3,1.2,5.9,15.6,13.6,27.4,23.1,35.5,9.5,8.1,20.5,12.1,32.9,12.1s18-2.5,23.3-7.5c5.3-5,7.6-12.3,7-21.9-.3-11.8-4-20.9-11-27.3-7-6.4-17.5-13-31.5-19.8-10.3-5-18.4-9.5-24.5-13.5-6.1-4-11.2-9.3-15.4-15.9-4.2-6.5-6.3-14.6-6.3-24.3,0-16.8,6.3-29.6,18.9-38.5,12.6-8.9,27.5-13.3,44.6-13.3s23.8,2.3,34.1,7c1.9.6,3,1.3,3.5,2.1.5.8.7,1.8.7,3,0,6.2-.2,11-.5,14.5l-.5,19.6c0,.6-.9.9-2.8.9s-2.8-.3-2.8-.9c0-6.5-2.5-12.7-7.5-18.4-5-5.8-11.2-10.3-18.7-13.8-7.5-3.4-14.9-5.1-22.4-5.1s-13.9,2.1-18.4,6.3c-4.5,4.2-6.8,10.5-6.8,18.9s3.6,19.5,10.7,25.9Z"/>
    </g>
    <text class="cls-53" transform="translate(238.4 1146.5) scale(1.1 1)"><tspan x="0" y="0" xml:space="preserve">COURS DE COUTURE  - CRÉATION - RETOUCHES &amp; RELOOKING</tspan></text>
    <text class="cls-51" transform="translate(2439.8 833.5)"><tspan x="0" y="0">2r</tspan></text>
    <g>
      <path class="cls-47" d="M400.7,864.9c88.6-135.5,145.5-376.1,306.3-376.1s43.4,14.1,48.1,21.7c8.2-8.8,12.3-14.7,12.3-18.2s1.2-3.5,4.1-3.5,22.9,22.9,22.9,28.8c0,13.5-72.2,32.3-81.6,76.9-.6,1.8-1.2,4.7-4.1,4.7s-4.1-3.5-4.1-5.9c0-28.8,26.4-57.5,45.2-77.5-7-2.3-11.7-2.3-19.9-2.3-132,0-205.4,217.1-298.1,349.1,12.3-1.2,20.5-1.8,33.4-1.8,102.1,0,191.9,36.4,191.9,45.2s-18.8,41.7-25.8,41.7-83.3-71.6-190.7-71.6-12.3,0-18.8.6c-38.1,51-82.7,85.1-137.3,85.1s-10-.6-10-2.9,2.9-4.1,5.3-4.1c46.4,0,78.6-29.3,111.5-76.3-76.3,8.8-130.3,40.5-130.3,65.7s-1.2,4.1-3.5,4.1c-3.5,0-4.1-4.1-4.1-6.5,0-31.1,63.4-65.7,147.3-76.9Z"/>
      <path class="cls-47" d="M785.6,799.8c1.8,0,2.3,1.8,2.3,2.3,0,1.2-4.1,5.3-5.9,7,0,0-58.1,63.4-103.3,63.4s-49.9-18.8-49.9-49.3c0-52.8,54.6-108,82.7-108s27,21.1,27,27.6c0,14.1-32.3,44-64.5,64.5-1.2,3.5-1.8,16.4-1.8,20.5,0,18.2,7.6,31.1,21.1,31.1,31.1,0,88.6-56.9,88.6-56.9,0,0,2.3-2.3,3.5-2.3ZM723.4,743.5c0-1.8-.6-4.1-2.9-4.1-8.8,0-28.2,17.6-45.8,58.7,24.6-17.6,48.7-44,48.7-54.6Z"/>
      <path class="cls-47" d="M807.9,782.2c-14.7,15.8-25.8,27-25.8,27-1.2,1.2-2.3,2.3-2.9,2.3-1.2,0-2.3-1.2-2.3-2.3,0-1.8,2.3-4.1,5.3-7,0,0,8.8-9.4,23.5-25.2-2.9-7.6-7.6-15.8-7.6-25.8,0-21.1,28.8-46.4,44-46.4s24.1,15.8,24.1,24.1-38.7,27-38.7,42.8,12.3,29.3,17,48.7c18.8,2.9,26.4,9.4,26.4,11.7s-4.1,6.5-7,6.5-7-5.9-18.2-10c.6,2.9,1.2,5.3,1.2,8.8,0,25.8-29.3,49.3-57.5,49.3s-54.6-27.6-54.6-42.8,4.1-8.2,10-10.6c9.4-3.5,41.1-11.1,66.3-14.1.6-2.3.6-4.1.6-6.5,0-14.7-.6-22.3-3.5-30.5ZM746.8,845.6c0,4.1,11.1,9.4,29.9,9.4s28.8-13.5,32.9-29.9c-29.9,3.5-48.7,12.3-58.1,15.8-4.1,1.8-4.7,2.9-4.7,4.7Z"/>
      <path class="cls-47" d="M1572.4,549c0,12.3-12.3,17-35.2,17-38.1,0-115.6-5.9-198.9-5.9-179.5,0-288.9,50-288.9,159.8s-17.7,23.4-17.7-32.3c0-106.8,116-151.5,390.6-151.5s133.2-20.5,137.9-20.5,12.3,14.7,12.3,33.4ZM1406.4,581.3c11.7,0,28.8,27,28.8,34s-1.8,5.3-7.6,8.8c-57.5,38.1-186,230-186,333.3s-.6,6.5-5.9,6.5-18.2-14.1-18.2-24.6c0-106.2,149-357.9,188.9-357.9Z"/>
      <path class="cls-47" d="M1432.8,879.9c-17,13.5-32.9,20.5-41.7,20.5-14.1,0-41.1-14.1-41.1-41.1s2.3-22.3,6.5-32.3c0-1.2-.6-2.3-.6-4.1,0-49.9,54.6-85.7,86.8-85.7s47.5,17,47.5,41.7c0,38.7-24.1,71-49.3,93.3,31.1-2.3,62.8-25.2,81-43.4,0,0,1.8-2.3,3.5-2.3s2.9,1.8,2.9,2.3c0,1.2-4.7,5.3-6.5,7-16.4,15.3-45.2,42.2-89.2,44ZM1428.7,754.3c7,0,21.7,21.1,21.7,27.6s-4.1,5.9-7.6,7.6c-21.7,12.9-52.8,39.3-65.7,65.1,10,11.1,25.8,17.6,45.2,18.8,24.1-21.7,46.9-58.1,46.9-96.2s-11.7-29.9-31.7-29.9-58.1,26.4-67.5,54c12.9-15.3,15.3-17.6,27.6-28.8,9.4-8.2,22.3-18.2,31.1-18.2ZM1370.6,874c0,10.6,5.9,17.6,14.7,17.6s16.4-2.9,29.3-11.7c-19.4-2.9-31.7-8.2-42.2-17.6-1.8,4.7-1.8,7-1.8,11.7Z"/>
      <path class="cls-47" d="M1601.2,772.5c0,11.1-67.5,88.6-67.5,110.9s4.1,7.6,6.5,7.6c35.8,0,101.5-62.2,101.5-62.2,0,0,2.3-2.3,4.1-2.3s2.3,1.8,2.3,2.3c0,1.2-4.7,5.3-6.5,7,0,0-71.6,68.7-109.7,68.7s-31.7-13.5-31.7-32.3,50.5-90.9,61.6-118.5c1.8-3.5,4.7-8.8,11.1-8.8,14.1,0,28.2,16.4,28.2,27.6ZM1658.1,671.6c0,4.1-7.6,17.6-12.3,19.9-3.5,1.8-13.5,5.3-18.8,7-11.1,3.5-14.1,10-17,10s-5.9-3.5-5.9-5.9c0-14.7,22.3-43.4,22.3-57.5s2.3-4.7,4.7-4.7c11.1,0,27,22.3,27,31.1Z"/>
      <path class="cls-47" d="M1773.7,828.9c1.2-1.2,2.3-2.3,3.5-2.3,1.8,0,2.3,1.8,2.3,2.3,0,1.2-4.1,5.3-5.9,7,0,0-76.3,72.2-108.6,72.2s-32.9-11.7-32.9-35.8c0-110.3,111.5-281.6,162.5-281.6s31.7,17.6,31.7,34c0,35.8-90.9,139.6-147.3,193,0,0-12.9,34.6-12.9,58.7s7.6,16.4,11.1,16.4c26.4,0,96.2-64,96.2-64ZM1813,624.1c0-1.2-1.2-4.7-5.3-4.7-29.9,0-105.6,125.6-124.4,183.1,45.2-45.2,129.7-144.9,129.7-178.4Z"/>
      <path class="cls-47" d="M1913.3,826.5c1.8,0,2.3,1.8,2.3,2.3,0,1.2-4.1,5.3-5.9,7,0,0-58.1,63.4-103.3,63.4s-49.9-18.8-49.9-49.3c0-52.8,54.6-108,82.7-108s27,21.1,27,27.6c0,14.1-32.3,44-64.5,64.5-1.2,3.5-1.8,16.4-1.8,20.5,0,18.2,7.6,31.1,21.1,31.1,31.1,0,88.6-56.9,88.6-56.9,0,0,2.3-2.3,3.5-2.3ZM1851.1,770.2c0-1.8-.6-4.1-2.9-4.1-8.8,0-28.2,17.6-45.8,58.7,24.6-17.6,48.7-44,48.7-54.6Z"/>
      <path class="cls-47" d="M1935.6,808.9c-14.7,15.8-25.8,27-25.8,27-1.2,1.2-2.3,2.3-2.9,2.3-1.2,0-2.3-1.2-2.3-2.3,0-1.8,2.3-4.1,5.3-7,0,0,8.8-9.4,23.5-25.2-2.9-7.6-7.6-15.8-7.6-25.8,0-21.1,28.8-46.4,44-46.4s24.1,15.8,24.1,24.1-38.7,27-38.7,42.8,12.3,29.3,17,48.7c18.8,2.9,26.4,9.4,26.4,11.7s-4.1,6.5-7,6.5-7-5.9-18.2-10c.6,2.9,1.2,5.3,1.2,8.8,0,25.8-29.3,49.3-57.5,49.3s-54.6-27.6-54.6-42.8,4.1-8.2,10-10.6c9.4-3.5,41.1-11.1,66.3-14.1.6-2.3.6-4.1.6-6.5,0-14.7-.6-22.3-3.5-30.5ZM1874.6,872.3c0,4.1,11.1,9.4,29.9,9.4s28.8-13.5,32.9-29.9c-29.9,3.5-48.7,12.3-58.1,15.8-4.1,1.8-4.7,2.9-4.7,4.7Z"/>
    </g>
    <g class="cls-56">
      <path class="cls-11" d="M256.7,549.1h63.4v295.2h-63.4v-295.2Z"/>
      <path class="cls-11" d="M419.8,762.9c1.9,26.3,27.8,38.7,57.4,38.7s38.9-2.9,56-8.6l8.5,42.8c-21.1,8.6-46.5,12.9-73.7,12.9-68.9,0-108.5-40.1-108.5-103.6s32.2-108.9,102.6-108.9,90.9,51.3,90.9,101.6-1.1,20.4-2.3,25.1h-130.8ZM494.1,719.5c.1-15.2-6.7-41.3-35.5-41.3s-37.6,24.4-39.3,41.3h74.8Z"/>
      <path class="cls-11" d="M590.3,789.1c11.5,7.1,35.8,15.1,54.3,15.1s27.3-6.4,27.3-16.8-6.5-15.6-29.9-23.5c-42.3-13.9-58.2-36.9-58-60.8,0-38.2,32.3-66.9,82.7-66.9s44.9,5.6,57.3,11.9l-11,43.6c-9.2-4.8-26.9-11.5-44.1-11.5s-24.3,6.2-24.3,16.4,8.1,14.9,33,23.5c38.6,13.1,54.8,33,55,62.7,0,38-29.6,66-87.9,66s-50.4-6-65.9-14.3l11.5-45.2Z"/>
      <path class="cls-11" d="M895.2,617.2h-75.6v-53.2h215.7v53.2h-76.7v227.1h-63.4v-227.1Z"/>
      <path class="cls-11" d="M1233.7,740.5c0,74.4-52.7,108.4-107.3,108.4s-105.1-39.1-105.1-104.9,43.3-107.8,108.7-107.8,103.6,42.8,103.6,104.3ZM1086.6,742.6c0,34.7,14.7,61.1,41.6,61.1s40.3-24.7,40.3-61.4-11.6-60.9-40.2-60.9-41.7,31-41.7,61.2Z"/>
      <path class="cls-11" d="M1338.1,584.3c0,17.6-12.9,31.6-34,31.6s-33-14-32.9-31.6c0-18.1,13.2-31.7,33.5-31.7s33.2,13.5,33.4,31.7ZM1272.9,844.3v-203.5h63.4v203.5h-63.4Z"/>
      <path class="cls-11" d="M1386.8,549.1h63.4v295.2h-63.4v-295.2Z"/>
      <path class="cls-11" d="M1549.9,762.9c1.9,26.3,27.8,38.7,57.4,38.7s38.9-2.9,56-8.6l8.5,42.8c-21.1,8.6-46.5,12.9-73.7,12.9-68.9,0-108.5-40.1-108.5-103.6s32.2-108.9,102.6-108.9,90.9,51.3,90.9,101.6-1.1,20.4-2.3,25.1h-130.8ZM1624.2,719.5c.1-15.2-6.7-41.3-35.5-41.3s-37.6,24.4-39.3,41.3h74.8Z"/>
      <path class="cls-11" d="M1720.5,789.1c11.5,7.1,35.8,15.1,54.3,15.1s27.3-6.4,27.3-16.8-6.5-15.6-29.9-23.5c-42.3-13.9-58.2-36.9-58-60.8,0-38.2,32.3-66.9,82.7-66.9s44.9,5.6,57.3,11.9l-11,43.6c-9.2-4.8-26.9-11.5-44.1-11.5s-24.3,6.2-24.3,16.4,8.1,14.9,33,23.5c38.6,13.1,54.8,33,55,62.7,0,38-29.6,66-87.9,66s-50.4-6-65.9-14.3l11.5-45.2Z"/>
      <path class="cls-11" d="M1988.6,782.4c11,5.9,37.1,16.5,62.9,16.5s49.4-15.7,49.4-35.9c-.1-26.8-26.6-38.9-54.5-39h-25.8v-45.4h24.7c21.2,0,47.9-8.3,47.9-31s-13.1-28.3-39.7-28.3-45.4,9.5-56.4,16.2l-13-45.6c16.3-10.5,48.6-20.5,83.6-20.5,57.8,0,89.7,30.3,89.7,67.5s-16.3,51.1-49.4,62.7v.8c32.4,5.8,58.6,30.3,58.6,65.8s-42.1,82.6-110.5,82.6-64.5-9-80.2-18.9l12.8-47.5Z"/>
      <path class="cls-11" d="M2423.8,836.6c-11.4,5.6-37.9,12.1-71.6,12.1-97,0-147.1-60.6-147.1-140.5s68.5-148.4,153.1-148.4,58,6.4,69,12.4l-12.9,50.1c-12.6-5.5-30.6-10.5-53.2-10.5-50,0-89.2,30.5-89.2,92.8s33.1,91.5,89.5,91.5,40.4-3.8,53-9.1l9.5,49.7Z"/>
      <path class="cls-11" d="M2455.6,844.3v-38.3l34.8-31.4c59.1-53.1,87.9-83.3,88.4-114.9,0-21.9-12.9-39.4-44.2-39.4s-43.6,11.7-57.9,22.2l-17.7-45.2c20.2-15.3,52-27.9,88.3-27.9,61.4,0,94.7,35.8,94.7,84.7s-32.5,81.8-71.9,116.5l-25,20.8v.8h102.2v52.1h-191.8Z"/>
      <path class="cls-11" d="M2694.1,707.9c0-29.9-.5-49.6-1.7-67.1h54.4l2.3,37.7h1.6c10.5-29.8,35.2-42.2,54.9-42.2s8.8.1,13.5,1.2v59.5c-4.9-1-10-1.8-17.1-1.8-23.2,0-39.1,12.3-43.4,32.1-.8,4-1.2,8.9-1.2,14.1v103h-63.4v-136.4Z"/>
    </g>
    <text/>
    <rect class="cls-34" x="249" y="1005.5" width="2572" height="16.2"/>
  </g>
  <g id="Damiere_a_finir" data-name="Damiere a finir" class="cls-56">
    <rect class="cls-11" x="3336.6" y="654" width="40.1" height="84.2" transform="translate(1578.3 -2234.6) rotate(47)"/>
    <rect class="cls-11" x="3201.5" y="744.3" width="40.1" height="145" transform="translate(1623.6 -2097.3) rotate(47)"/>
    <rect class="cls-11" x="3070.7" y="898.3" width="40.1" height="85" transform="translate(1672.7 -1962.2) rotate(47)"/>
    <rect class="cls-37" x="3191.1" y="496.4" width="40.1" height="84.2" transform="translate(1416.6 -2178.4) rotate(47)"/>
    <rect class="cls-37" x="3055.9" y="586.7" width="40.1" height="145" transform="translate(1461.9 -2041) rotate(47)"/>
    <rect class="cls-37" x="2925.2" y="740.6" width="40.1" height="85" transform="translate(1511 -1905.9) rotate(47)"/>
    <rect class="cls-49" x="3225.7" y="559.3" width="42.6" height="186.8" transform="translate(1511.6 -2168.2) rotate(47)"/>
    <rect class="cls-49" x="3040.6" y="731.7" width="42.6" height="186.8" transform="translate(1578.8 -1977.8) rotate(47)"/>
    <rect class="cls-11" x="3134.8" y="666.6" width="40.1" height="145" transform="translate(5967.2 -870.1) rotate(137)"/>
    <rect class="cls-11" x="3259.2" y="830" width="40.1" height="84.2" transform="translate(6273.3 -724.8) rotate(137)"/>
    <rect class="cls-11" x="3009.4" y="560.9" width="40.1" height="84.2" transform="translate(5657.4 -1020.5) rotate(137)"/>
    <rect class="cls-37" x="3126.4" y="478.6" width="40.1" height="186.4" transform="translate(5838.7 -1154.3) rotate(137)"/>
    <rect class="cls-37" x="3299.3" y="665.8" width="40.1" height="186.4" transform="translate(6265.6 -947.9) rotate(137)"/>
    <rect class="cls-33" x="2969.7" y="622.5" width="40.1" height="186.4" transform="translate(5665.3 -798.1) rotate(137)"/>
    <rect class="cls-33" x="3144" y="810" width="40.1" height="186.4" transform="translate(6095 -592.3) rotate(137)"/>
  </g>
  <g id="Damier_exemple" data-name="Damier exemple" class="cls-56">
    <rect class="cls-11" x="2041.4" y="1110.1" width="25.9" height="54.3"/>
    <rect class="cls-11" x="2038.9" y="1207.4" width="25.9" height="93.6"/>
    <rect class="cls-11" x="2040" y="1343.1" width="25.9" height="54.9"/>
    <rect class="cls-37" x="1902.8" y="1109.5" width="25.9" height="54.3"/>
    <rect class="cls-37" x="1900.4" y="1206.8" width="25.9" height="93.6"/>
    <rect class="cls-37" x="1901.4" y="1342.5" width="25.9" height="54.9"/>
    <rect class="cls-49" x="1971.8" y="1109.7" width="27.5" height="120.6"/>
    <rect class="cls-49" x="1971.8" y="1273" width="27.5" height="120.6"/>
    <rect class="cls-11" x="1972.9" y="1204.8" width="25.9" height="93.6" transform="translate(3237.4 -734.3) rotate(90)"/>
    <rect class="cls-11" x="2090.4" y="1224.1" width="25.9" height="54.3" transform="translate(3354.6 -852.1) rotate(90)"/>
    <rect class="cls-11" x="1853.4" y="1223.7" width="25.9" height="54.3" transform="translate(3117.3 -615.5) rotate(90)"/>
    <rect class="cls-37" x="1890.1" y="1121.7" width="25.9" height="120.3" transform="translate(3085 -721.2) rotate(90)"/>
    <rect class="cls-37" x="2054.6" y="1122.4" width="25.9" height="120.3" transform="translate(3250.2 -885) rotate(90)"/>
    <rect class="cls-33" x="1889.2" y="1259.1" width="25.9" height="120.3" transform="translate(3221.4 -582.9) rotate(90)"/>
    <rect class="cls-33" x="2054.5" y="1259.2" width="25.9" height="120.3" transform="translate(3386.8 -748) rotate(90)"/>
  </g>
  <g id="Bobine_rouge" data-name="Bobine rouge">
    <g id="Bobine_bleu" data-name="Bobine bleu">
      <path class="cls-32" d="M3117.6,830.6l-.2,13.9c36.2,21.4,159.8,19.9,188.5-.5l-.2-13.5"/>
      <ellipse class="cls-31" cx="3211.9" cy="830.6" rx="94.1" ry="16.3"/>
      <path class="cls-48" d="M3293.5,828.7c-21.2,5.9-51.1,11.8-87.1,11.3-31.7-.5-58.3-5.8-78-11.3v-136.7c22.5,4.3,49.7,7.9,80.5,8.4,33.3.6,62.5-2.5,86.4-6.6-.6,44.9-1.2,89.9-1.8,134.8Z"/>
      <g>
        <path class="cls-39" d="M3211.4,708.7c26.6,0,52.8-3.2,78.6-9.6,1.9-.5,3.8-1,5.7-1.5s1.3-.9,1.3-1.7v-.2c0-1.1-1.1-1.9-2.1-1.6-1.9.5-3.8,1-5.7,1.5-52,12.9-106,12.6-160.4-.8-1.1-.3-2.1.5-2.1,1.7v.2c0,.8.5,1.5,1.3,1.7,28,6.9,55.9,10.3,83.5,10.3Z"/>
        <path class="cls-45" d="M3211.4,716.1c26.6,0,52.8-3.2,78.6-9.6,1.9-.5,3.8-1,5.7-1.5s1.3-.9,1.3-1.7v-.2c0-1.1-1.1-1.9-2.2-1.6-1.9.5-3.8,1-5.7,1.5-52,12.9-106,12.6-160.4-.8-1.1-.3-2.1.5-2.1,1.7v.2c0,.8.5,1.5,1.3,1.7,28,6.9,55.9,10.3,83.5,10.3Z"/>
        <path class="cls-40" d="M3212,723.1c26.6,0,52.8-3.2,78.6-9.6,1.7-.4,3.4-.9,5.1-1.3s1.3-.9,1.3-1.7v-.2c0-1.1-1.1-1.9-2.1-1.6-1.7.4-3.4.9-5.1,1.3-52.2,12.9-106.4,12.6-161.1-.9-1.1-.3-2.1.5-2.1,1.7v.2c0,.8.5,1.5,1.3,1.7,28.2,7,56.3,10.5,84.1,10.5Z"/>
        <path class="cls-42" d="M3211.5,730.4c26.6,0,52.8-3.2,78.6-9.6,1.9-.5,3.8-1,5.6-1.5s1.3-.9,1.3-1.7v-.2c0-1.1-1.1-1.9-2.1-1.6-1.9.5-3.8,1-5.6,1.5-52,12.9-106,12.6-160.5-.8s-2.1.5-2.1,1.7v.2c0,.8.5,1.5,1.3,1.7,28,6.9,56,10.3,83.6,10.3Z"/>
        <path class="cls-43" d="M3211.4,737.7c26.6,0,52.8-3.2,78.6-9.6,1.9-.5,3.8-1,5.7-1.5s1.3-.9,1.3-1.7v-.2c0-1.1-1.1-1.9-2.1-1.6-1.9.5-3.8,1-5.7,1.5-52,12.9-106,12.6-160.4-.8-1.1-.3-2.1.5-2.1,1.7v.2c0,.8.5,1.5,1.3,1.7,28,6.9,55.9,10.3,83.5,10.3Z"/>
        <path class="cls-38" d="M3212.1,746c26.6,0,52.8-3.2,78.6-9.6,1.7-.4,3.3-.8,5-1.3s1.3-.9,1.3-1.7v-.2c0-1.1-1.1-1.9-2.1-1.6-1.7.4-3.4.9-5,1.3-52.2,12.9-106.4,12.6-161.1-.9-1.1-.3-2.1.5-2.1,1.7v.2c0,.8.5,1.5,1.3,1.7,28.2,7,56.4,10.5,84.2,10.5Z"/>
        <path class="cls-41" d="M3211.5,753c26.6,0,52.8-3.2,78.6-9.6,1.9-.5,3.8-1,5.6-1.5s1.3-.9,1.3-1.7v-.2c0-1.1-1.1-1.9-2.1-1.6-1.9.5-3.8,1-5.6,1.5-52,12.9-106,12.6-160.5-.8-1.1-.3-2.1.5-2.1,1.7v.2c0,.8.5,1.5,1.3,1.7,28,6.9,56,10.3,83.6,10.3Z"/>
        <path class="cls-46" d="M3211.4,760.4c26.6,0,52.8-3.2,78.6-9.6,1.9-.5,3.8-1,5.7-1.5s1.3-.9,1.3-1.7v-.2c0-1.1-1.1-1.9-2.2-1.6-1.9.5-3.8,1-5.7,1.5-52,12.9-106,12.6-160.4-.8-1.1-.3-2.1.5-2.1,1.7v.2c0,.8.5,1.5,1.3,1.7,28,6.9,55.9,10.3,83.5,10.3Z"/>
        <path class="cls-44" d="M3212.1,767.4c26.6,0,52.8-3.2,78.6-9.6,1.7-.4,3.3-.8,5-1.3s1.3-.9,1.3-1.7v-.2c0-1.1-1.1-1.9-2.1-1.6-1.7.4-3.4.9-5,1.3-52.2,12.9-106.4,12.6-161.1-.9s-2.1.5-2.1,1.7v.2c0,.8.5,1.5,1.3,1.7,28.2,7,56.4,10.5,84.2,10.5Z"/>
        <path class="cls-6" d="M3211.5,775.2c26.6,0,52.8-3.2,78.6-9.6,1.9-.5,3.8-1,5.6-1.5s1.3-.9,1.3-1.7v-.2c0-1.1-1.1-1.9-2.1-1.6-1.9.5-3.8,1-5.6,1.5-52,12.9-106,12.6-160.5-.8s-2.1.5-2.1,1.7v.2c0,.8.5,1.5,1.3,1.7,28,6.9,56,10.3,83.6,10.3Z"/>
        <path class="cls-5" d="M3211.4,782.6c26.6,0,52.8-3.2,78.6-9.6,1.9-.5,3.8-1,5.7-1.5s1.3-.9,1.3-1.7v-.2c0-1.1-1.1-1.9-2.1-1.6-1.9.5-3.8,1-5.7,1.5-52,12.9-106,12.6-160.4-.8-1.1-.3-2.1.5-2.1,1.7v.2c0,.8.5,1.5,1.3,1.7,28,6.9,55.9,10.3,83.5,10.3Z"/>
        <path class="cls-4" d="M3212.1,789.6c26.6,0,52.8-3.2,78.6-9.6,1.7-.4,3.4-.8,5-1.3s1.3-.9,1.3-1.7v-.2c0-1.1-1.1-1.9-2.1-1.6-1.7.4-3.4.9-5,1.3-52.2,12.9-106.4,12.6-161.1-.9-1.1-.3-2.1.5-2.1,1.7v.2c0,.8.5,1.5,1.3,1.7,28.2,7,56.4,10.5,84.2,10.5Z"/>
        <path class="cls-2" d="M3211.6,796.8c26.6,0,52.8-3.2,78.6-9.6,1.8-.5,3.7-.9,5.5-1.4s1.3-.9,1.3-1.7v-.2c0-1.1-1.1-1.9-2.2-1.6-1.8.5-3.7,1-5.5,1.4-52.1,12.9-106.1,12.6-160.6-.8-1.1-.3-2.1.5-2.1,1.7v.2c0,.8.5,1.5,1.3,1.7,28.1,6.9,56.1,10.4,83.7,10.4Z"/>
        <path class="cls-8" d="M3212.3,803.8c26.6,0,52.8-3.2,78.6-9.6,1.6-.4,3.2-.8,4.8-1.2s1.3-.9,1.3-1.7v-.2c0-1.1-1.1-1.9-2.1-1.7-1.6.4-3.2.8-4.8,1.2-52.3,12.9-106.6,12.6-161.3-1-1.1-.3-2.1.5-2.1,1.7v.2c0,.8.5,1.5,1.3,1.7,28.3,7,56.5,10.5,84.4,10.5Z"/>
        <path class="cls-3" d="M3211.7,811.7c26.6,0,52.8-3.2,78.6-9.6,1.8-.4,3.6-.9,5.4-1.4s1.3-.9,1.3-1.7v-.2c0-1.1-1.1-1.9-2.2-1.6-1.8.5-3.6,1-5.4,1.4-52.1,12.9-106.2,12.6-160.7-.8-1.1-.3-2.1.5-2.1,1.7v.2c0,.8.5,1.5,1.3,1.7,28.1,6.9,56.1,10.4,83.8,10.4Z"/>
        <path class="cls-1" d="M3211.6,819c26.6,0,52.8-3.2,78.6-9.6,1.8-.5,3.7-.9,5.5-1.4s1.3-.9,1.3-1.7v-.2c0-1.1-1.1-1.9-2.2-1.6-1.8.5-3.7,1-5.5,1.4-52.1,12.9-106.1,12.6-160.6-.8s-2.1.5-2.1,1.7v.2c0,.8.5,1.5,1.3,1.7,28.1,6.9,56.1,10.4,83.7,10.4Z"/>
        <path class="cls-9" d="M3212.3,826c26.6,0,52.8-3.2,78.6-9.6,1.6-.4,3.2-.8,4.8-1.2s1.3-.9,1.3-1.7v-.2c0-1.1-1.1-1.9-2.1-1.6-1.6.4-3.2.8-4.8,1.2-52.3,12.9-106.6,12.6-161.3-1-1.1-.3-2.1.5-2.1,1.7v.2c0,.8.5,1.5,1.3,1.7,28.3,7,56.5,10.5,84.4,10.5Z"/>
        <path class="cls-7" d="M3212.1,834c26.6,0,52.8-3.2,78.6-9.6,1.7-.4,3.3-.8,5-1.3s1.3-.9,1.3-1.7v-.2c0-1.1-1.1-1.9-2.1-1.6-1.7.4-3.3.9-5,1.3-52.3,12.9-106.4,12.6-161.1-.9-1.1-.3-2.1.5-2.1,1.7v.2c0,.8.5,1.5,1.3,1.7,28.3,7,56.4,10.5,84.2,10.5Z"/>
      </g>
      <path class="cls-32" d="M3118.3,675.4l-.2,13.9c36.2,21.4,159.8,19.9,188.5-.5l-.2-13.5"/>
      <ellipse class="cls-31" cx="3212.5" cy="675.4" rx="94.1" ry="16.3"/>
    </g>
    <path class="cls-36" d="M3062.7,489.9l178.3,508.6,3.9-.9-153.8-516.1s-3.5-9.6-16.6-6.6-11.8,15-11.8,15Z"/>
    <g id="aiguille">
      <circle class="cls-55" cx="3122.4" cy="742.6" r="235.3"/>
      <ellipse class="cls-35" cx="3088.4" cy="514.9" rx="8.2" ry="32.4" transform="translate(.7 1034.3) rotate(-19)"/>
      <path class="cls-12" d="M3062.6,489.9l178.3,508.6,3.9-.9-166.5-475s-7.3-20-5.2-34.5c2.2-15.2,17.9-6.6,17.9-6.6,0,0-3.5-9.6-16.6-6.6-13.1,3.1-11.8,15-11.8,15Z"/>
      <path class="cls-48" d="M3335.4,765.5c2.5-27.1-.3-54.1-8.3-80.3-8-26.2-20.7-50.3-37.9-71.6-17.8-22.1-39.6-40.1-64.8-53.8s-52.3-21.9-80.5-24.7c-18-1.8-36-1.3-53.7,1.5l1.2,4c44.7-6.9,90.4.9,131,22.9,48.9,26.4,84.6,70.1,100.7,123,16.1,52.9,10.5,108.6-15.6,157-26.1,48.4-69.7,83.6-122.8,99.1-53,15.5-109.2,9.6-158-16.9-48.9-26.4-84.6-70.1-100.7-123-16.1-52.9-10.5-108.6,15.6-157,26.1-48.4,69.7-83.6,122.8-99.1,6.2-1.8,12.4-3.3,18.6-4.5l-1.2-4c-6.2,1.2-12.4,2.7-18.6,4.6-26.3,7.7-50.4,20.2-71.7,37.1-22,17.5-40,39-53.5,64-13.5,24.9-21.6,51.8-24.2,79.8-2.5,27.1.3,54.1,8.3,80.3,8,26.2,20.7,50.3,37.9,71.6,17.8,22.1,39.6,40.1,64.8,53.8,25.2,13.6,52.3,21.9,80.5,24.7,27.2,2.7,54.4.2,80.7-7.5,26.3-7.7,50.4-20.2,71.7-37.1,22-17.5,40-39,53.5-64,13.5-24.9,21.6-51.8,24.2-79.8Z"/>
    </g>
    <path class="cls-32" d="M2949.1,830.3l-.3,16.9c44,26,194.3,24.1,229.3-.6l-.2-16.4"/>
    <ellipse class="cls-31" cx="3063.7" cy="830.3" rx="114.4" ry="19.9"/>
    <path class="cls-11" d="M3163,828c-25.7,7.2-62.1,14.4-105.9,13.7-38.6-.6-70.9-7.1-94.8-13.7v-166.2c27.4,5.3,60.4,9.6,97.9,10.2,40.5.7,76-3,105-8-.7,54.7-1.5,109.3-2.2,164Z"/>
    <g>
      <path class="cls-26" d="M3063.2,682.1c32.3,0,64.2-3.9,95.6-11.6,2.3-.6,4.6-1.2,6.9-1.8s1.5-1.1,1.5-2v-.3c0-1.4-1.3-2.4-2.6-2-2.3.6-4.6,1.2-6.9,1.8-63.3,15.6-128.9,15.3-195.1-1-1.3-.3-2.6.7-2.6,2v.3c0,1,.7,1.8,1.6,2,34.1,8.4,68,12.6,101.6,12.6Z"/>
      <path class="cls-24" d="M3063.1,691c32.3,0,64.2-3.9,95.6-11.6,2.3-.6,4.7-1.2,7-1.8s1.5-1.1,1.5-2v-.3c0-1.4-1.3-2.4-2.6-2-2.3.6-4.7,1.2-7,1.8-63.3,15.6-128.9,15.3-195-.9-1.3-.3-2.6.7-2.6,2v.3c0,1,.7,1.8,1.6,2,34.1,8.4,68,12.5,101.5,12.5Z"/>
      <path class="cls-23" d="M3063.9,699.6c32.3,0,64.2-3.9,95.6-11.6,2-.5,4.1-1,6.2-1.6s1.5-1.1,1.5-2v-.3c0-1.4-1.3-2.4-2.6-2-2.1.5-4.1,1.1-6.2,1.6-63.5,15.7-129.4,15.3-195.9-1.1-1.3-.3-2.6.7-2.6,2v.3c0,1,.7,1.8,1.6,2,34.3,8.5,68.5,12.7,102.3,12.7Z"/>
      <path class="cls-25" d="M3063.2,708.4c32.3,0,64.2-3.9,95.6-11.6,2.3-.6,4.6-1.2,6.9-1.8s1.5-1.1,1.5-2v-.3c0-1.4-1.3-2.4-2.6-2-2.3.6-4.6,1.2-6.9,1.8-63.3,15.6-128.9,15.3-195.2-1-1.3-.3-2.6.7-2.6,2v.3c0,1,.7,1.8,1.6,2,34.1,8.4,68.1,12.6,101.6,12.6Z"/>
      <path class="cls-20" d="M3063.1,717.3c32.3,0,64.2-3.9,95.6-11.6,2.3-.6,4.6-1.2,7-1.8s1.5-1.1,1.5-2v-.3c0-1.4-1.3-2.4-2.6-2-2.3.6-4.6,1.2-7,1.8-63.3,15.6-128.9,15.3-195.1-.9-1.3-.3-2.6.7-2.6,2v.3c0,1,.7,1.8,1.6,2,34.1,8.4,68,12.6,101.5,12.6Z"/>
      <path class="cls-18" d="M3064,727.4c32.3,0,64.2-3.9,95.6-11.6,2-.5,4.1-1,6.1-1.6s1.6-1.1,1.6-2v-.3c0-1.4-1.3-2.4-2.6-2-2,.5-4.1,1.1-6.1,1.6-63.5,15.7-129.4,15.3-195.9-1.1s-2.6.7-2.6,2v.3c0,1,.7,1.8,1.6,2,34.4,8.5,68.6,12.8,102.4,12.8Z"/>
      <path class="cls-22" d="M3063.2,736c32.3,0,64.2-3.9,95.6-11.6,2.3-.6,4.6-1.2,6.9-1.8s1.5-1.1,1.5-2v-.3c0-1.4-1.3-2.4-2.6-2-2.3.6-4.6,1.2-6.9,1.8-63.3,15.6-128.9,15.3-195.2-1-1.3-.3-2.6.7-2.6,2v.3c0,1,.7,1.8,1.6,2,34.1,8.4,68.1,12.6,101.6,12.6Z"/>
      <path class="cls-19" d="M3063.1,744.9c32.3,0,64.2-3.9,95.6-11.6,2.3-.6,4.6-1.2,7-1.8s1.5-1.1,1.5-2v-.3c0-1.4-1.3-2.4-2.6-2-2.3.6-4.6,1.2-6.9,1.8-63.3,15.6-128.9,15.3-195.1-.9s-2.6.7-2.6,2v.3c0,1,.7,1.8,1.6,2,34.1,8.4,68,12.6,101.5,12.6Z"/>
      <path class="cls-16" d="M3064,753.5c32.3,0,64.2-3.9,95.6-11.6,2-.5,4.1-1,6.1-1.6s1.6-1.1,1.6-2v-.3c0-1.4-1.3-2.4-2.6-2-2,.5-4.1,1.1-6.1,1.6-63.5,15.7-129.4,15.3-195.9-1.1-1.3-.3-2.6.7-2.6,2v.3c0,1,.7,1.8,1.6,2,34.4,8.5,68.6,12.8,102.4,12.8Z"/>
      <path class="cls-17" d="M3063.2,763c32.3,0,64.2-3.9,95.6-11.6,2.3-.6,4.6-1.2,6.9-1.8s1.5-1.1,1.5-2v-.3c0-1.4-1.3-2.4-2.6-2-2.3.6-4.6,1.2-6.9,1.8-63.3,15.6-128.9,15.3-195.2-1-1.3-.3-2.6.7-2.6,2v.3c0,1,.7,1.8,1.6,2,34.1,8.4,68.1,12.6,101.6,12.6Z"/>
      <path class="cls-21" d="M3063.1,771.9c32.3,0,64.2-3.9,95.6-11.6,2.3-.6,4.6-1.2,7-1.8s1.5-1.1,1.5-2v-.3c0-1.4-1.3-2.4-2.6-2-2.3.6-4.6,1.2-7,1.8-63.3,15.6-128.9,15.3-195.1-.9s-2.6.7-2.6,2v.3c0,1,.7,1.8,1.6,2,34.1,8.4,68,12.6,101.5,12.6Z"/>
      <path class="cls-15" d="M3064,780.5c32.3,0,64.2-3.9,95.6-11.6,2-.5,4.1-1,6.1-1.6s1.5-1.1,1.5-2v-.3c0-1.4-1.3-2.4-2.6-2-2,.5-4.1,1.1-6.1,1.6-63.5,15.7-129.4,15.3-195.9-1.1s-2.6.7-2.6,2v.3c0,1,.7,1.8,1.6,2,34.4,8.5,68.6,12.8,102.4,12.8Z"/>
      <path class="cls-13" d="M3063.4,789.2c32.3,0,64.2-3.9,95.6-11.6,2.2-.5,4.5-1.1,6.7-1.7s1.5-1.1,1.5-2v-.3c0-1.4-1.3-2.4-2.6-2-2.2.6-4.5,1.2-6.7,1.7-63.4,15.7-129,15.3-195.3-1-1.3-.3-2.6.7-2.6,2v.3c0,1,.7,1.8,1.6,2,34.2,8.4,68.2,12.6,101.8,12.6Z"/>
      <path class="cls-14" d="M3064.2,797.8c32.3,0,64.2-3.9,95.6-11.6,2-.5,3.9-1,5.9-1.5s1.5-1.1,1.5-2v-.3c0-1.4-1.3-2.4-2.6-2-2,.5-3.9,1-5.9,1.5-63.6,15.7-129.6,15.3-196.2-1.2s-2.6.7-2.6,2v.3c0,1,.7,1.8,1.6,2,34.4,8.5,68.7,12.8,102.6,12.8Z"/>
      <path class="cls-28" d="M3063.5,807.3c32.3,0,64.2-3.9,95.6-11.6,2.2-.5,4.4-1.1,6.6-1.7s1.5-1.1,1.5-2v-.3c0-1.4-1.3-2.4-2.6-2-2.2.6-4.4,1.2-6.6,1.7-63.4,15.7-129.1,15.3-195.4-1-1.3-.3-2.6.7-2.6,2v.3c0,1,.7,1.8,1.6,2,34.2,8.4,68.2,12.6,101.9,12.6Z"/>
      <path class="cls-27" d="M3063.4,816.2c32.3,0,64.2-3.9,95.6-11.6,2.2-.5,4.5-1.1,6.7-1.7s1.5-1.1,1.5-2v-.3c0-1.4-1.3-2.4-2.6-2-2.2.6-4.5,1.2-6.7,1.7-63.3,15.7-129,15.3-195.3-1-1.3-.3-2.6.7-2.6,2v.3c0,1,.7,1.8,1.6,2,34.2,8.4,68.2,12.6,101.8,12.6Z"/>
      <path class="cls-30" d="M3064.2,824.8c32.3,0,64.2-3.9,95.6-11.6,1.9-.5,3.9-1,5.9-1.5s1.6-1.1,1.6-2v-.3c0-1.4-1.3-2.4-2.6-2-2,.5-3.9,1-5.9,1.5-63.6,15.7-129.6,15.3-196.2-1.2-1.3-.3-2.6.7-2.6,2v.3c0,1,.7,1.8,1.6,2,34.4,8.5,68.7,12.8,102.6,12.8Z"/>
      <path class="cls-29" d="M3064,834.4c32.3,0,64.2-3.9,95.6-11.6,2-.5,4-1,6.1-1.6s1.6-1.1,1.6-2v-.3c0-1.4-1.3-2.4-2.6-2-2,.5-4.1,1.1-6.1,1.6-63.5,15.7-129.5,15.3-196-1.2-1.3-.3-2.6.7-2.6,2v.3c0,1,.7,1.8,1.6,2,34.4,8.5,68.6,12.8,102.4,12.8Z"/>
    </g>
    <path class="cls-32" d="M2949.9,641.5l-.3,16.9c44,26,194.3,24.1,229.3-.6l-.2-16.4"/>
    <ellipse class="cls-31" cx="3064.5" cy="641.5" rx="114.4" ry="19.9"/>
  </g>
</svg>